<svg xmlns="http://www.w3.org/2000/svg" viewBox="0 0 512 512" width="100%" height="100%">
  <rect width="512" height="512" rx="128" fill="#0d9488"/>
  <path d="M256 112c-17.7 0-32 14.3-32 32v80h-80c-17.7 0-32 14.3-32 32s14.3 32 32 32h80v80c0 17.7 14.3 32 32 32s32-14.3 32-32v-80h80c17.7 0 32-14.3 32-32s-14.3-32-32-32h-80v-80c0-17.7-14.3-32-32-32z" fill="#ffffff"/>
  <path d="M128 256h64l24-48 32 96 32-64 24 32h64" stroke="#f59e0b" stroke-width="24" stroke-linecap="round" stroke-linejoin="round" fill="none"/>
</svg>
